<svg width="35" height="30" fill="none" xmlns="http://www.w3.org/2000/svg"><path d="M29.233 21.516H21.84v3.36h7.393c3.024 0 5.46-2.477 5.46-5.46V11.48c0-3.023-2.477-5.46-5.46-5.46H21.38l2.773-2.772L21.76.853 16.13 6.48a1.672 1.672 0 000 2.394l5.628 5.627 2.393-2.394-2.772-2.773h7.853c1.177 0 2.1.967 2.1 2.1v7.897c.002 1.219-.964 2.185-2.098 2.185zM5.46 24.876h8.147l-2.728 2.73L13.273 30l5.627-5.627c.336-.337.504-.757.504-1.177 0-.42-.168-.882-.504-1.176l-5.627-5.67-2.394 2.394 2.773 2.773H5.46c-1.176 0-2.1-.967-2.1-2.1v-7.938c0-1.176.966-2.1 2.1-2.1h6.846V6.02H5.46C2.436 6.02 0 8.497 0 11.48v7.897c0 3.023 2.479 5.5 5.46 5.5z" fill="#2D3747"/></svg>