<svg width="35" height="30" viewBox="0 0 35 30" fill="none" xmlns="http://www.w3.org/2000/svg">
<g id="Group">
<path id="Vector" d="M29.2331 21.5163H21.8402V24.8763H29.2331C32.2567 24.8763 34.6931 22.399 34.6931 19.4163V11.4792C34.6931 8.45552 32.2157 6.01918 29.2331 6.01918H21.3795L24.1522 3.24651L21.7585 0.852844L16.1297 6.48001C15.457 7.15268 15.457 8.20268 16.1297 8.87367L21.7568 14.5008L24.1505 12.1072L21.3778 9.33449H29.2314C30.4077 9.33449 31.3314 10.3008 31.3314 11.4345V19.3309C31.333 20.5499 30.3667 21.5163 29.2331 21.5163Z" fill="#2D3747"/>
<path id="Vector_2" d="M5.46021 24.8763H13.6074L10.879 27.6063L13.2727 30L18.8998 24.3728C19.2361 24.0365 19.4035 23.6165 19.4035 23.1965C19.4035 22.7765 19.2361 22.3138 18.8998 22.0202L13.2727 16.3502L10.879 18.7438L13.6517 21.5165H5.46C4.28366 21.5165 3.36 20.5502 3.36 19.4165V11.4793C3.36 10.303 4.32633 9.37935 5.46 9.37935H12.3064V6.01935H5.46C2.43633 6.01935 0 8.49668 0 11.4793V19.3758C0 22.3994 2.47896 24.8769 5.46 24.8769L5.46021 24.8763Z" fill="#2D3747"/>
</g>
</svg>
